# xmcd CD database file
# Copyright (C) 1997 Ti Kan
#
# Track frame offsets:
#  150
#  14110
#  26562
#  39655
#  51732
#  64565
#  76432
#  88117
#  100287
#  113802
#  125195
#  136935
#  150320
#  162957
#  174885
#  187595
#
# Disc length: 2716 seconds
#
# Revision: 1
# Processed by: cddbd v1.4b41PL1 Copyright (c) Steve Scherf et al.
# Submitted via: CDWizzard Release:4.35
#
DISCID=d00a9a10
DTITLE=Bob Wills and his Texas Playboys - Anthology 1935-1973 [CD1]
DYEAR=1900
DGENRE=
TTITLE0=Maiden's Prayer
TTITLE1=Steel Guitar Rag
TTITLE2=Right Or Wrong
TTITLE3=Time Changes Everything
TTITLE4=Corrine Corrine
TTITLE5=Big Beaver
TTITLE6=New San Antonio Rose
TTITLE7=Take Me Back To Tulsa
TTITLE8=Cherokee Maiden
TTITLE9=Home In San Antone
TTITLE10=Miss Molly
TTITLE11=My Confession
TTITLE12=Texas Playboy Rag
TTITLE13=Roly-Poly
TTITLE14=Stay A Little Longer
TTITLE15=Basin Street Blues
EXTD=
EXTT0=
EXTT1=
EXTT2=
EXTT3=
EXTT4=
EXTT5=
EXTT6=
EXTT7=
EXTT8=
EXTT9=
EXTT10=
EXTT11=
EXTT12=
EXTT13=
EXTT14=
EXTT15=
PLAYORDER=
